<svg version="1.1" xmlns="http://www.w3.org/2000/svg" xmlns:xlink="http://www.w3.org/1999/xlink" width="512" height="512"><defs/><g><path fill="#a0a0a0" stroke="none" paint-order="stroke fill markers" d=" M 260 266 A 4 4 0 1 1 259.9999980000002 265.99600000066664"/><path fill="#a0a0a0" stroke="none" paint-order="stroke fill markers" d=" M 260 276 A 4 4 0 1 1 259.9999980000002 275.99600000066664"/><path fill="#a0a0a0" stroke="none" paint-order="stroke fill markers" d=" M 260 236 A 4 4 0 1 1 259.9999980000002 235.99600000066667"/><path fill="#a0a0a0" stroke="none" paint-order="stroke fill markers" d=" M 260 286 A 4 4 0 1 1 259.9999980000002 285.99600000066664"/><path fill="#a0a0a0" stroke="none" paint-order="stroke fill markers" d=" M 285.98076211353316 241 A 4 4 0 1 1 285.98076011353334 240.99600000066667"/><path fill="#a0a0a0" stroke="none" paint-order="stroke fill markers" d=" M 234.01923788646684 241 A 4 4 0 1 1 234.01923588646702 240.99600000066667"/><path fill="#a0a0a0" stroke="none" paint-order="stroke fill markers" d=" M 260 296 A 4 4 0 1 1 259.9999980000002 295.99600000066664"/><path fill="#a0a0a0" stroke="none" paint-order="stroke fill markers" d=" M 300 256 A 4 4 0 1 1 299.9999980000002 255.99600000066667"/><path fill="#a0a0a0" stroke="none" paint-order="stroke fill markers" d=" M 260 216 A 4 4 0 1 1 259.9999980000002 215.99600000066667"/><path fill="#a0a0a0" stroke="none" paint-order="stroke fill markers" d=" M 220 256 A 4 4 0 1 1 219.99999800000018 255.99600000066667"/><path fill="#a0a0a0" stroke="none" paint-order="stroke fill markers" d=" M 260 306 A 4 4 0 1 1 259.9999980000002 305.99600000066664"/><path fill="#a0a0a0" stroke="none" paint-order="stroke fill markers" d=" M 307.5528258147577 271.45084971874735 A 4 4 0 1 1 307.55282381475786 271.446849719414"/><path fill="#a0a0a0" stroke="none" paint-order="stroke fill markers" d=" M 289.38926261462365 215.54915028125265 A 4 4 0 1 1 289.3892606146238 215.54515028191932"/><path fill="#a0a0a0" stroke="none" paint-order="stroke fill markers" d=" M 230.61073738537635 215.54915028125262 A 4 4 0 1 1 230.61073538537653 215.5451502819193"/><path fill="#a0a0a0" stroke="none" paint-order="stroke fill markers" d=" M 212.44717418524232 271.45084971874735 A 4 4 0 1 1 212.4471721852425 271.446849719414"/><path fill="#a0a0a0" stroke="none" paint-order="stroke fill markers" d=" M 260 316 A 4 4 0 1 1 259.9999980000002 315.99600000066664"/><path fill="#a0a0a0" stroke="none" paint-order="stroke fill markers" d=" M 311.9615242270663 286 A 4 4 0 1 1 311.9615222270665 285.99600000066664"/><path fill="#a0a0a0" stroke="none" paint-order="stroke fill markers" d=" M 311.9615242270663 226 A 4 4 0 1 1 311.9615222270665 225.99600000066667"/><path fill="#a0a0a0" stroke="none" paint-order="stroke fill markers" d=" M 260 196 A 4 4 0 1 1 259.9999980000002 195.99600000066667"/><path fill="#a0a0a0" stroke="none" paint-order="stroke fill markers" d=" M 208.03847577293368 225.99999999999997 A 4 4 0 1 1 208.03847377293386 225.99600000066664"/><path fill="#a0a0a0" stroke="none" paint-order="stroke fill markers" d=" M 208.03847577293365 285.99999999999994 A 4 4 0 1 1 208.03847377293383 285.9960000006666"/><path fill="#a0a0a0" stroke="none" paint-order="stroke fill markers" d=" M 260 326 A 4 4 0 1 1 259.9999980000002 325.99600000066664"/><path fill="#a0a0a0" stroke="none" paint-order="stroke fill markers" d=" M 314.7282037727621 299.64428613011137 A 4 4 0 1 1 314.72820177276225 299.640286130778"/><path fill="#a0a0a0" stroke="none" paint-order="stroke fill markers" d=" M 328.24495385272763 240.423534623058 A 4 4 0 1 1 328.2449518527278 240.41953462372467"/><path fill="#a0a0a0" stroke="none" paint-order="stroke fill markers" d=" M 290.3718617382291 192.93217924683069 A 4 4 0 1 1 290.37185973822926 192.92817924749735"/><path fill="#a0a0a0" stroke="none" paint-order="stroke fill markers" d=" M 229.62813826177094 192.93217924683066 A 4 4 0 1 1 229.62813626177112 192.92817924749733"/><path fill="#a0a0a0" stroke="none" paint-order="stroke fill markers" d=" M 191.75504614727237 240.42353462305798 A 4 4 0 1 1 191.75504414727254 240.41953462372464"/><path fill="#a0a0a0" stroke="none" paint-order="stroke fill markers" d=" M 205.2717962272379 299.64428613011137 A 4 4 0 1 1 205.27179422723808 299.640286130778"/><path fill="#a0a0a0" stroke="none" paint-order="stroke fill markers" d=" M 260 336 A 4 4 0 1 1 259.9999980000002 335.99600000066664"/><path fill="#a0a0a0" stroke="none" paint-order="stroke fill markers" d=" M 316.5685424949238 312.5685424949238 A 4 4 0 1 1 316.568540494924 312.56454249559044"/><path fill="#a0a0a0" stroke="none" paint-order="stroke fill markers" d=" M 340 256 A 4 4 0 1 1 339.9999980000002 255.99600000066667"/><path fill="#a0a0a0" stroke="none" paint-order="stroke fill markers" d=" M 316.5685424949238 199.4314575050762 A 4 4 0 1 1 316.568540494924 199.42745750574286"/><path fill="#a0a0a0" stroke="none" paint-order="stroke fill markers" d=" M 260 176 A 4 4 0 1 1 259.9999980000002 175.99600000066667"/><path fill="#a0a0a0" stroke="none" paint-order="stroke fill markers" d=" M 203.4314575050762 199.4314575050762 A 4 4 0 1 1 203.43145550507637 199.42745750574286"/><path fill="#a0a0a0" stroke="none" paint-order="stroke fill markers" d=" M 180 255.99999999999997 A 4 4 0 1 1 179.99999800000018 255.99600000066664"/><path fill="#a0a0a0" stroke="none" paint-order="stroke fill markers" d=" M 203.4314575050762 312.5685424949238 A 4 4 0 1 1 203.43145550507637 312.56454249559044"/><path fill="#a0a0a0" stroke="none" paint-order="stroke fill markers" d=" M 260 346 A 4 4 0 1 1 259.9999980000002 345.99600000066664"/><path fill="#a0a0a0" stroke="none" paint-order="stroke fill markers" d=" M 317.85088487178854 324.943999880708 A 4 4 0 1 1 317.8508828717887 324.93999988137466"/><path fill="#a0a0a0" stroke="none" paint-order="stroke fill markers" d=" M 348.6326977710987 271.62833599002374 A 4 4 0 1 1 348.6326957710989 271.6243359906904"/><path fill="#a0a0a0" stroke="none" paint-order="stroke fill markers" d=" M 337.9422863405995 211.00000000000003 A 4 4 0 1 1 337.94228434059966 210.9960000006667"/><path fill="#a0a0a0" stroke="none" paint-order="stroke fill markers" d=" M 290.7818128993102 171.42766412926824 A 4 4 0 1 1 290.78181089931036 171.4236641299349"/><path fill="#a0a0a0" stroke="none" paint-order="stroke fill markers" d=" M 229.21818710068982 171.42766412926824 A 4 4 0 1 1 229.21818510069 171.4236641299349"/><path fill="#a0a0a0" stroke="none" paint-order="stroke fill markers" d=" M 182.05771365940055 210.99999999999994 A 4 4 0 1 1 182.05771165940072 210.9960000006666"/><path fill="#a0a0a0" stroke="none" paint-order="stroke fill markers" d=" M 171.36730222890128 271.6283359900237 A 4 4 0 1 1 171.36730022890146 271.6243359906903"/><path fill="#a0a0a0" stroke="none" paint-order="stroke fill markers" d=" M 202.14911512821143 324.943999880708 A 4 4 0 1 1 202.1491131282116 324.93999988137466"/><path fill="#a0a0a0" stroke="none" paint-order="stroke fill markers" d=" M 260 356 A 4 4 0 1 1 259.9999980000002 355.99600000066664"/><path fill="#a0a0a0" stroke="none" paint-order="stroke fill markers" d=" M 318.7785252292473 336.90169943749476 A 4 4 0 1 1 318.77852322924747 336.8976994381614"/><path fill="#a0a0a0" stroke="none" paint-order="stroke fill markers" d=" M 355.10565162951536 286.90169943749476 A 4 4 0 1 1 355.10564962951554 286.8976994381614"/><path fill="#a0a0a0" stroke="none" paint-order="stroke fill markers" d=" M 355.10565162951536 225.09830056250527 A 4 4 0 1 1 355.10564962951554 225.09430056317194"/><path fill="#a0a0a0" stroke="none" paint-order="stroke fill markers" d=" M 318.7785252292473 175.09830056250527 A 4 4 0 1 1 318.77852322924747 175.09430056317194"/><path fill="#a0a0a0" stroke="none" paint-order="stroke fill markers" d=" M 260 156 A 4 4 0 1 1 259.9999980000002 155.99600000066667"/><path fill="#a0a0a0" stroke="none" paint-order="stroke fill markers" d=" M 201.2214747707527 175.09830056250524 A 4 4 0 1 1 201.22147277075288 175.0943005631719"/><path fill="#a0a0a0" stroke="none" paint-order="stroke fill markers" d=" M 164.89434837048464 225.09830056250524 A 4 4 0 1 1 164.8943463704848 225.0943005631719"/><path fill="#a0a0a0" stroke="none" paint-order="stroke fill markers" d=" M 164.89434837048464 286.9016994374947 A 4 4 0 1 1 164.8943463704848 286.89769943816134"/><path fill="#a0a0a0" stroke="none" paint-order="stroke fill markers" d=" M 201.22147477075265 336.9016994374947 A 4 4 0 1 1 201.22147277075283 336.89769943816134"/><path fill="#a0a0a0" stroke="none" paint-order="stroke fill markers" d=" M 260 366 A 4 4 0 1 1 259.9999980000002 365.99600000066664"/><path fill="#a0a0a0" stroke="none" paint-order="stroke fill markers" d=" M 319.4704899201157 348.53788861142993 A 4 4 0 1 1 319.4704879201159 348.5338886120966"/><path fill="#a0a0a0" stroke="none" paint-order="stroke fill markers" d=" M 360.059519488997 301.6956514302075 A 4 4 0 1 1 360.0595174889972 301.6916514308741"/><path fill="#a0a0a0" stroke="none" paint-order="stroke fill markers" d=" M 368.88035860690263 240.34536778993865 A 4 4 0 1 1 368.8803566069028 240.34136779060532"/><path fill="#a0a0a0" stroke="none" paint-order="stroke fill markers" d=" M 343.1324531789684 183.96531926601864 A 4 4 0 1 1 343.13245117896855 183.9613192666853"/><path fill="#a0a0a0" stroke="none" paint-order="stroke fill markers" d=" M 290.99058125255726 150.45577290240527 A 4 4 0 1 1 290.99057925255744 150.45177290307194"/><path fill="#a0a0a0" stroke="none" paint-order="stroke fill markers" d=" M 229.00941874744277 150.45577290240527 A 4 4 0 1 1 229.00941674744294 150.45177290307194"/><path fill="#a0a0a0" stroke="none" paint-order="stroke fill markers" d=" M 176.8675468210316 183.96531926601864 A 4 4 0 1 1 176.86754482103177 183.9613192666853"/><path fill="#a0a0a0" stroke="none" paint-order="stroke fill markers" d=" M 151.11964139309742 240.34536778993862 A 4 4 0 1 1 151.1196393930976 240.3413677906053"/><path fill="#a0a0a0" stroke="none" paint-order="stroke fill markers" d=" M 159.94048051100296 301.6956514302075 A 4 4 0 1 1 159.94047851100314 301.6916514308741"/><path fill="#a0a0a0" stroke="none" paint-order="stroke fill markers" d=" M 200.5295100798843 348.53788861142993 A 4 4 0 1 1 200.52950807988447 348.5338886120966"/><path fill="#a0a0a0" stroke="none" paint-order="stroke fill markers" d=" M 260 376 A 4 4 0 1 1 259.9999980000002 375.99600000066664"/><path fill="#a0a0a0" stroke="none" paint-order="stroke fill markers" d=" M 320 359.92304845413264 A 4 4 0 1 1 319.9999980000002 359.9190484547993"/><path fill="#a0a0a0" stroke="none" paint-order="stroke fill markers" d=" M 363.92304845413264 316 A 4 4 0 1 1 363.9230464541328 315.99600000066664"/><path fill="#a0a0a0" stroke="none" paint-order="stroke fill markers" d=" M 380 256 A 4 4 0 1 1 379.9999980000002 255.99600000066667"/><path fill="#a0a0a0" stroke="none" paint-order="stroke fill markers" d=" M 363.92304845413264 196.00000000000003 A 4 4 0 1 1 363.9230464541328 195.9960000006667"/><path fill="#a0a0a0" stroke="none" paint-order="stroke fill markers" d=" M 320.00000000000006 152.0769515458674 A 4 4 0 1 1 319.99999800000023 152.07295154653406"/><path fill="#a0a0a0" stroke="none" paint-order="stroke fill markers" d=" M 260 136 A 4 4 0 1 1 259.9999980000002 135.99600000066667"/><path fill="#a0a0a0" stroke="none" paint-order="stroke fill markers" d=" M 200.00000000000003 152.07695154586736 A 4 4 0 1 1 199.9999980000002 152.07295154653403"/><path fill="#a0a0a0" stroke="none" paint-order="stroke fill markers" d=" M 156.0769515458674 195.99999999999994 A 4 4 0 1 1 156.07694954586756 195.9960000006666"/><path fill="#a0a0a0" stroke="none" paint-order="stroke fill markers" d=" M 140 255.99999999999997 A 4 4 0 1 1 139.99999800000018 255.99600000066664"/><path fill="#a0a0a0" stroke="none" paint-order="stroke fill markers" d=" M 156.0769515458673 315.99999999999994 A 4 4 0 1 1 156.07694954586748 315.9960000006666"/><path fill="#a0a0a0" stroke="none" paint-order="stroke fill markers" d=" M 199.99999999999994 359.92304845413264 A 4 4 0 1 1 199.99999800000012 359.9190484547993"/><path fill="#a0a0a0" stroke="none" paint-order="stroke fill markers" d=" M 260 386 A 4 4 0 1 1 259.9999980000002 385.99600000066664"/><path fill="#a0a0a0" stroke="none" paint-order="stroke fill markers" d=" M 320.4140123656899 371.1092833349173 A 4 4 0 1 1 320.4140103656901 371.1052833355839"/><path fill="#a0a0a0" stroke="none" paint-order="stroke fill markers" d=" M 366.9879025661753 329.8484170750503 A 4 4 0 1 1 366.9879005661755 329.84441707571693"/><path fill="#a0a0a0" stroke="none" paint-order="stroke fill markers" d=" M 389.05215363274704 271.669768433192 A 4 4 0 1 1 389.0521516327472 271.66576843385866"/><path fill="#a0a0a0" stroke="none" paint-order="stroke fill markers" d=" M 381.5521115491039 209.9013646844704 A 4 4 0 1 1 381.5521095491041 209.89736468513706"/><path fill="#a0a0a0" stroke="none" paint-order="stroke fill markers" d=" M 346.2059455713034 158.6936027377569 A 4 4 0 1 1 346.2059435713036 158.68960273842356"/><path fill="#a0a0a0" stroke="none" paint-order="stroke fill markers" d=" M 291.11103635738255 129.77756373461324 A 4 4 0 1 1 291.1110343573827 129.7735637352799"/><path fill="#a0a0a0" stroke="none" paint-order="stroke fill markers" d=" M 228.88896364261754 129.77756373461324 A 4 4 0 1 1 228.88896164261772 129.7735637352799"/><path fill="#a0a0a0" stroke="none" paint-order="stroke fill markers" d=" M 173.79405442869665 158.69360273775683 A 4 4 0 1 1 173.79405242869683 158.6896027384235"/><path fill="#a0a0a0" stroke="none" paint-order="stroke fill markers" d=" M 138.44788845089607 209.90136468447034 A 4 4 0 1 1 138.44788645089625 209.897364685137"/><path fill="#a0a0a0" stroke="none" paint-order="stroke fill markers" d=" M 130.94784636725296 271.6697684331919 A 4 4 0 1 1 130.94784436725314 271.66576843385855"/><path fill="#a0a0a0" stroke="none" paint-order="stroke fill markers" d=" M 153.01209743382464 329.84841707505024 A 4 4 0 1 1 153.0120954338248 329.8444170757169"/><path fill="#a0a0a0" stroke="none" paint-order="stroke fill markers" d=" M 199.58598763431002 371.1092833349172 A 4 4 0 1 1 199.5859856343102 371.10528333558386"/><path fill="#a0a0a0" stroke="none" paint-order="stroke fill markers" d=" M 260 396 A 4 4 0 1 1 259.9999980000002 395.99600000066664"/><path fill="#a0a0a0" stroke="none" paint-order="stroke fill markers" d=" M 320.7437234764581 382.1356415063387 A 4 4 0 1 1 320.7437214764583 382.1316415070053"/><path fill="#a0a0a0" stroke="none" paint-order="stroke fill markers" d=" M 369.45640754552414 343.28857226022274 A 4 4 0 1 1 369.4564055455243 343.2845722608894"/><path fill="#a0a0a0" stroke="none" paint-order="stroke fill markers" d=" M 396.48990770545527 287.152930753884 A 4 4 0 1 1 396.48990570545544 287.14893075455063"/><path fill="#a0a0a0" stroke="none" paint-order="stroke fill markers" d=" M 396.48990770545527 224.847069246116 A 4 4 0 1 1 396.48990570545544 224.84306924678268"/><path fill="#a0a0a0" stroke="none" paint-order="stroke fill markers" d=" M 369.4564075455242 168.71142773977732 A 4 4 0 1 1 369.4564055455244 168.707427740444"/><path fill="#a0a0a0" stroke="none" paint-order="stroke fill markers" d=" M 320.7437234764582 129.86435849366134 A 4 4 0 1 1 320.74372147645835 129.860358494328"/><path fill="#a0a0a0" stroke="none" paint-order="stroke fill markers" d=" M 260 116 A 4 4 0 1 1 259.9999980000002 115.99600000066667"/><path fill="#a0a0a0" stroke="none" paint-order="stroke fill markers" d=" M 199.25627652354189 129.8643584936613 A 4 4 0 1 1 199.25627452354206 129.86035849432798"/><path fill="#a0a0a0" stroke="none" paint-order="stroke fill markers" d=" M 150.54359245447586 168.71142773977726 A 4 4 0 1 1 150.54359045447603 168.70742774044393"/><path fill="#a0a0a0" stroke="none" paint-order="stroke fill markers" d=" M 123.5100922945447 224.84706924611595 A 4 4 0 1 1 123.51009029454487 224.84306924678262"/><path fill="#a0a0a0" stroke="none" paint-order="stroke fill markers" d=" M 123.5100922945447 287.152930753884 A 4 4 0 1 1 123.51009029454487 287.14893075455063"/><path fill="#a0a0a0" stroke="none" paint-order="stroke fill markers" d=" M 150.5435924544758 343.2885722602227 A 4 4 0 1 1 150.54359045447598 343.2845722608893"/><path fill="#a0a0a0" stroke="none" paint-order="stroke fill markers" d=" M 199.25627652354183 382.13564150633863 A 4 4 0 1 1 199.256274523542 382.13164150700527"/><path fill="#a0a0a0" stroke="none" paint-order="stroke fill markers" d=" M 260 406 A 4 4 0 1 1 259.9999980000002 405.99600000066664"/><path fill="#a0a0a0" stroke="none" paint-order="stroke fill markers" d=" M 321.01049646137005 393.0318186463901 A 4 4 0 1 1 321.01049446137023 393.02781864705673"/><path fill="#a0a0a0" stroke="none" paint-order="stroke fill markers" d=" M 371.47172382160915 356.3695909538287 A 4 4 0 1 1 371.4717218216093 356.36559095449536"/><path fill="#a0a0a0" stroke="none" paint-order="stroke fill markers" d=" M 402.658477444273 302.3525491562421 A 4 4 0 1 1 402.65847544427317 302.34854915690875"/><path fill="#a0a0a0" stroke="none" paint-order="stroke fill markers" d=" M 409.17828430524105 240.320730509852 A 4 4 0 1 1 409.1782823052412 240.31673051051868"/><path fill="#a0a0a0" stroke="none" paint-order="stroke fill markers" d=" M 389.9038105676658 181.00000000000003 A 4 4 0 1 1 389.903808567666 180.9960000006667"/><path fill="#a0a0a0" stroke="none" paint-order="stroke fill markers" d=" M 348.167787843871 134.6474508437579 A 4 4 0 1 1 348.1677858438712 134.64345084442456"/><path fill="#a0a0a0" stroke="none" paint-order="stroke fill markers" d=" M 291.18675362266396 109.27785988992918 A 4 4 0 1 1 291.18675162266413 109.27385989059584"/><path fill="#a0a0a0" stroke="none" paint-order="stroke fill markers" d=" M 228.81324637733613 109.27785988992915 A 4 4 0 1 1 228.8132443773363 109.27385989059582"/><path fill="#a0a0a0" stroke="none" paint-order="stroke fill markers" d=" M 171.83221215612906 134.64745084375787 A 4 4 0 1 1 171.83221015612924 134.64345084442454"/><path fill="#a0a0a0" stroke="none" paint-order="stroke fill markers" d=" M 130.09618943233426 180.99999999999994 A 4 4 0 1 1 130.09618743233443 180.9960000006666"/><path fill="#a0a0a0" stroke="none" paint-order="stroke fill markers" d=" M 110.821715694759 240.32073050985187 A 4 4 0 1 1 110.82171369475917 240.31673051051854"/><path fill="#a0a0a0" stroke="none" paint-order="stroke fill markers" d=" M 117.34152255572695 302.3525491562421 A 4 4 0 1 1 117.34152055572712 302.34854915690875"/><path fill="#a0a0a0" stroke="none" paint-order="stroke fill markers" d=" M 148.5282761783908 356.36959095382866 A 4 4 0 1 1 148.52827417839097 356.3655909544953"/><path fill="#a0a0a0" stroke="none" paint-order="stroke fill markers" d=" M 198.98950353862986 393.0318186463901 A 4 4 0 1 1 198.98950153863004 393.02781864705673"/><path fill="#a0a0a0" stroke="none" paint-order="stroke fill markers" d=" M 260 416 A 4 4 0 1 1 259.9999980000002 415.99600000066664"/><path fill="#a0a0a0" stroke="none" paint-order="stroke fill markers" d=" M 321.2293491784144 403.8207252018059 A 4 4 0 1 1 321.22934717841457 403.8167252024725"/><path fill="#a0a0a0" stroke="none" paint-order="stroke fill markers" d=" M 373.1370849898476 369.1370849898476 A 4 4 0 1 1 373.1370829898478 369.13308499051425"/><path fill="#a0a0a0" stroke="none" paint-order="stroke fill markers" d=" M 407.8207252018059 317.2293491784144 A 4 4 0 1 1 407.82072320180606 317.22534917908104"/><path fill="#a0a0a0" stroke="none" paint-order="stroke fill markers" d=" M 420 256 A 4 4 0 1 1 419.9999980000002 255.99600000066667"/><path fill="#a0a0a0" stroke="none" paint-order="stroke fill markers" d=" M 407.8207252018059 194.77065082158566 A 4 4 0 1 1 407.82072320180606 194.76665082225233"/><path fill="#a0a0a0" stroke="none" paint-order="stroke fill markers" d=" M 373.1370849898476 142.8629150101524 A 4 4 0 1 1 373.1370829898478 142.85891501081906"/><path fill="#a0a0a0" stroke="none" paint-order="stroke fill markers" d=" M 321.2293491784144 108.17927479819411 A 4 4 0 1 1 321.22934717841457 108.17527479886078"/><path fill="#a0a0a0" stroke="none" paint-order="stroke fill markers" d=" M 260 96 A 4 4 0 1 1 259.9999980000002 95.99600000066667"/><path fill="#a0a0a0" stroke="none" paint-order="stroke fill markers" d=" M 198.77065082158566 108.17927479819411 A 4 4 0 1 1 198.77064882158584 108.17527479886078"/><path fill="#a0a0a0" stroke="none" paint-order="stroke fill markers" d=" M 146.8629150101524 142.86291501015236 A 4 4 0 1 1 146.86291301015257 142.85891501081903"/><path fill="#a0a0a0" stroke="none" paint-order="stroke fill markers" d=" M 112.17927479819417 194.77065082158555 A 4 4 0 1 1 112.17927279819433 194.76665082225222"/><path fill="#a0a0a0" stroke="none" paint-order="stroke fill markers" d=" M 100 255.99999999999997 A 4 4 0 1 1 99.99999800000016 255.99600000066664"/><path fill="#a0a0a0" stroke="none" paint-order="stroke fill markers" d=" M 112.17927479819414 317.2293491784144 A 4 4 0 1 1 112.1792727981943 317.22534917908104"/><path fill="#a0a0a0" stroke="none" paint-order="stroke fill markers" d=" M 146.86291501015236 369.1370849898476 A 4 4 0 1 1 146.86291301015254 369.13308499051425"/><path fill="#a0a0a0" stroke="none" paint-order="stroke fill markers" d=" M 198.77065082158555 403.8207252018058 A 4 4 0 1 1 198.77064882158572 403.81672520247247"/><path fill="#a0a0a0" stroke="none" paint-order="stroke fill markers" d=" M 260 426 A 4 4 0 1 1 259.9999980000002 425.99600000066664"/><path fill="#a0a0a0" stroke="none" paint-order="stroke fill markers" d=" M 321.41108325181597 414.5202789987405 A 4 4 0 1 1 321.41108125181614 414.5162789994071"/><path fill="#a0a0a0" stroke="none" paint-order="stroke fill markers" d=" M 374.5282594199147 381.63151592751205 A 4 4 0 1 1 374.5282574199149 381.6275159281787"/><path fill="#a0a0a0" stroke="none" paint-order="stroke fill markers" d=" M 412.1777595303606 331.77552048201153 A 4 4 0 1 1 412.1777575303608 331.77152048267817"/><path fill="#a0a0a0" stroke="none" paint-order="stroke fill markers" d=" M 429.27480997015584 271.6856211087613 A 4 4 0 1 1 429.274807970156 271.68162110942797"/><path fill="#a0a0a0" stroke="none" paint-order="stroke fill markers" d=" M 423.51035933937925 209.47729168774592 A 4 4 0 1 1 423.5103573393794 209.4732916884126"/><path fill="#a0a0a0" stroke="none" paint-order="stroke fill markers" d=" M 395.66292863764073 153.55211181552642 A 4 4 0 1 1 395.6629266376409 153.54811181619309"/><path fill="#a0a0a0" stroke="none" paint-order="stroke fill markers" d=" M 349.49346768915046 111.46308692596557 A 4 4 0 1 1 349.49346568915064 111.45908692663224"/><path fill="#a0a0a0" stroke="none" paint-order="stroke fill markers" d=" M 291.23741802881693 88.8945730537367 A 4 4 0 1 1 291.2374160288171 88.89057305440338"/><path fill="#a0a0a0" stroke="none" paint-order="stroke fill markers" d=" M 228.76258197118307 88.8945730537367 A 4 4 0 1 1 228.76257997118324 88.89057305440338"/><path fill="#a0a0a0" stroke="none" paint-order="stroke fill markers" d=" M 170.5065323108495 111.4630869259656 A 4 4 0 1 1 170.50653031084968 111.45908692663227"/><path fill="#a0a0a0" stroke="none" paint-order="stroke fill markers" d=" M 124.3370713623593 153.5521118155264 A 4 4 0 1 1 124.33706936235946 153.54811181619306"/><path fill="#a0a0a0" stroke="none" paint-order="stroke fill markers" d=" M 96.48964066062075 209.47729168774586 A 4 4 0 1 1 96.48963866062091 209.47329168841253"/><path fill="#a0a0a0" stroke="none" paint-order="stroke fill markers" d=" M 90.72519002984413 271.68562110876127 A 4 4 0 1 1 90.72518802984429 271.6816211094279"/><path fill="#a0a0a0" stroke="none" paint-order="stroke fill markers" d=" M 107.82224046963941 331.77552048201153 A 4 4 0 1 1 107.82223846963957 331.77152048267817"/><path fill="#a0a0a0" stroke="none" paint-order="stroke fill markers" d=" M 145.47174058008528 381.63151592751205 A 4 4 0 1 1 145.47173858008546 381.6275159281787"/><path fill="#a0a0a0" stroke="none" paint-order="stroke fill markers" d=" M 198.58891674818398 414.5202789987405 A 4 4 0 1 1 198.58891474818415 414.5162789994071"/><path fill="#a0a0a0" stroke="none" paint-order="stroke fill markers" d=" M 260 436 A 4 4 0 1 1 259.9999980000002 435.99600000066664"/><path fill="#a0a0a0" stroke="none" paint-order="stroke fill markers" d=" M 321.56362579862036 425.1446717414635 A 4 4 0 1 1 321.56362379862054 425.14067174213017"/><path fill="#a0a0a0" stroke="none" paint-order="stroke fill markers" d=" M 375.7017697435771 393.88799976141604 A 4 4 0 1 1 375.70176774357725 393.8839997620827"/><path fill="#a0a0a0" stroke="none" paint-order="stroke fill markers" d=" M 415.88457268119896 346 A 4 4 0 1 1 415.88457068119914 345.99600000066664"/><path fill="#a0a0a0" stroke="none" paint-order="stroke fill markers" d=" M 437.26539554219744 287.2566719800475 A 4 4 0 1 1 437.2653935421976 287.2526719807141"/><path fill="#a0a0a0" stroke="none" paint-order="stroke fill markers" d=" M 437.26539554219744 224.74332801995254 A 4 4 0 1 1 437.2653935421976 224.7393280206192"/><path fill="#a0a0a0" stroke="none" paint-order="stroke fill markers" d=" M 415.88457268119896 166.00000000000006 A 4 4 0 1 1 415.88457068119914 165.99600000066673"/><path fill="#a0a0a0" stroke="none" paint-order="stroke fill markers" d=" M 375.7017697435771 118.11200023858399 A 4 4 0 1 1 375.70176774357725 118.10800023925066"/><path fill="#a0a0a0" stroke="none" paint-order="stroke fill markers" d=" M 321.5636257986204 86.8553282585365 A 4 4 0 1 1 321.5636237986206 86.85132825920317"/><path fill="#a0a0a0" stroke="none" paint-order="stroke fill markers" d=" M 260 76 A 4 4 0 1 1 259.9999980000002 75.99600000066667"/><path fill="#a0a0a0" stroke="none" paint-order="stroke fill markers" d=" M 198.43637420137964 86.85532825853647 A 4 4 0 1 1 198.4363722013798 86.85132825920314"/><path fill="#a0a0a0" stroke="none" paint-order="stroke fill markers" d=" M 144.29823025642293 118.11200023858396 A 4 4 0 1 1 144.2982282564231 118.10800023925063"/><path fill="#a0a0a0" stroke="none" paint-order="stroke fill markers" d=" M 104.1154273188011 165.99999999999991 A 4 4 0 1 1 104.11542531880126 165.99600000066658"/><path fill="#a0a0a0" stroke="none" paint-order="stroke fill markers" d=" M 82.73460445780256 224.74332801995254 A 4 4 0 1 1 82.73460245780272 224.7393280206192"/><path fill="#a0a0a0" stroke="none" paint-order="stroke fill markers" d=" M 82.73460445780253 287.2566719800474 A 4 4 0 1 1 82.7346024578027 287.252671980714"/><path fill="#a0a0a0" stroke="none" paint-order="stroke fill markers" d=" M 104.11542731880104 346 A 4 4 0 1 1 104.1154253188012 345.99600000066664"/><path fill="#a0a0a0" stroke="none" paint-order="stroke fill markers" d=" M 144.29823025642287 393.88799976141604 A 4 4 0 1 1 144.29822825642304 393.8839997620827"/><path fill="#a0a0a0" stroke="none" paint-order="stroke fill markers" d=" M 198.4363742013795 425.14467174146347 A 4 4 0 1 1 198.43637220137967 425.1406717421301"/><path fill="#a0a0a0" stroke="none" paint-order="stroke fill markers" d=" M 260 446 A 4 4 0 1 1 259.9999980000002 445.99600000066664"/><path fill="#a0a0a0" stroke="none" paint-order="stroke fill markers" d=" M 321.69289914888986 435.70527592312055 A 4 4 0 1 1 321.69289714889004 435.7012759237872"/><path fill="#a0a0a0" stroke="none" paint-order="stroke fill markers" d=" M 376.7004154110369 405.9366967853148 A 4 4 0 1 1 376.70041341103706 405.9326967859814"/><path fill="#a0a0a0" stroke="none" paint-order="stroke fill markers" d=" M 419.06163086988045 359.9201500432611 A 4 4 0 1 1 419.0616288698806 359.91615004392776"/><path fill="#a0a0a0" stroke="none" paint-order="stroke fill markers" d=" M 444.1860505284728 302.64224255675185 A 4 4 0 1 1 444.18604852847295 302.6382425574185"/><path fill="#a0a0a0" stroke="none" paint-order="stroke fill markers" d=" M 449.35105367126727 240.30992436025687 A 4 4 0 1 1 449.35105167126744 240.30592436092354"/><path fill="#a0a0a0" stroke="none" paint-order="stroke fill markers" d=" M 433.9969320644609 179.67786931593582 A 4 4 0 1 1 433.9969300644611 179.6738693166025"/><path fill="#a0a0a0" stroke="none" paint-order="stroke fill markers" d=" M 399.787543027895 127.31650139110923 A 4 4 0 1 1 399.7875410278952 127.3125013917759"/><path fill="#a0a0a0" stroke="none" paint-order="stroke fill markers" d=" M 350.430004677044 88.8999872707671 A 4 4 0 1 1 350.4300026770442 88.89598727143377"/><path fill="#a0a0a0" stroke="none" paint-order="stroke fill markers" d=" M 291.2729721533395 68.59135235348276 A 4 4 0 1 1 291.27297015333966 68.58735235414943"/><path fill="#a0a0a0" stroke="none" paint-order="stroke fill markers" d=" M 228.72702784666058 68.59135235348273 A 4 4 0 1 1 228.72702584666075 68.5873523541494"/><path fill="#a0a0a0" stroke="none" paint-order="stroke fill markers" d=" M 169.56999532295603 88.89998727076707 A 4 4 0 1 1 169.5699933229562 88.89598727143374"/><path fill="#a0a0a0" stroke="none" paint-order="stroke fill markers" d=" M 120.21245697210506 127.31650139110914 A 4 4 0 1 1 120.21245497210522 127.31250139177581"/><path fill="#a0a0a0" stroke="none" paint-order="stroke fill markers" d=" M 86.00306793553912 179.6778693159357 A 4 4 0 1 1 86.00306593553928 179.67386931660238"/><path fill="#a0a0a0" stroke="none" paint-order="stroke fill markers" d=" M 70.64894632873273 240.3099243602568 A 4 4 0 1 1 70.6489443287329 240.30592436092346"/><path fill="#a0a0a0" stroke="none" paint-order="stroke fill markers" d=" M 75.8139494715272 302.64224255675174 A 4 4 0 1 1 75.81394747152736 302.6382425574184"/><path fill="#a0a0a0" stroke="none" paint-order="stroke fill markers" d=" M 100.93836913011953 359.92015004326106 A 4 4 0 1 1 100.93836713011969 359.9161500439277"/><path fill="#a0a0a0" stroke="none" paint-order="stroke fill markers" d=" M 143.29958458896306 405.9366967853147 A 4 4 0 1 1 143.29958258896323 405.93269678598136"/><path fill="#a0a0a0" stroke="none" paint-order="stroke fill markers" d=" M 198.30710085111008 435.70527592312055 A 4 4 0 1 1 198.30709885111025 435.7012759237872"/><path fill="#a0a0a0" stroke="none" paint-order="stroke fill markers" d=" M 260 456 A 4 4 0 1 1 259.9999980000002 455.99600000066664"/><path fill="#a0a0a0" stroke="none" paint-order="stroke fill markers" d=" M 321.80339887498945 446.21130325903073 A 4 4 0 1 1 321.80339687498963 446.20730325969737"/><path fill="#a0a0a0" stroke="none" paint-order="stroke fill markers" d=" M 377.55705045849464 417.8033988749895 A 4 4 0 1 1 377.5570484584948 417.79939887565615"/><path fill="#a0a0a0" stroke="none" paint-order="stroke fill markers" d=" M 421.8033988749895 373.55705045849464 A 4 4 0 1 1 421.8033968749897 373.5530504591613"/><path fill="#a0a0a0" stroke="none" paint-order="stroke fill markers" d=" M 450.21130325903073 317.8033988749895 A 4 4 0 1 1 450.2113012590309 317.79939887565615"/><path fill="#a0a0a0" stroke="none" paint-order="stroke fill markers" d=" M 460 256 A 4 4 0 1 1 459.9999980000002 255.99600000066667"/><path fill="#a0a0a0" stroke="none" paint-order="stroke fill markers" d=" M 450.21130325903073 194.19660112501055 A 4 4 0 1 1 450.2113012590309 194.19260112567721"/><path fill="#a0a0a0" stroke="none" paint-order="stroke fill markers" d=" M 421.8033988749895 138.4429495415054 A 4 4 0 1 1 421.8033968749897 138.43894954217208"/><path fill="#a0a0a0" stroke="none" paint-order="stroke fill markers" d=" M 377.55705045849464 94.19660112501055 A 4 4 0 1 1 377.5570484584948 94.19260112567721"/><path fill="#a0a0a0" stroke="none" paint-order="stroke fill markers" d=" M 321.8033988749895 65.7886967409693 A 4 4 0 1 1 321.8033968749897 65.78469674163597"/><path fill="#a0a0a0" stroke="none" paint-order="stroke fill markers" d=" M 260 56 A 4 4 0 1 1 259.9999980000002 55.99600000066666"/><path fill="#a0a0a0" stroke="none" paint-order="stroke fill markers" d=" M 198.19660112501055 65.78869674096927 A 4 4 0 1 1 198.19659912501072 65.78469674163594"/><path fill="#a0a0a0" stroke="none" paint-order="stroke fill markers" d=" M 142.4429495415054 94.19660112501049 A 4 4 0 1 1 142.4429475415056 94.19260112567716"/><path fill="#a0a0a0" stroke="none" paint-order="stroke fill markers" d=" M 98.19660112501055 138.44294954150536 A 4 4 0 1 1 98.1965991250107 138.43894954217203"/><path fill="#a0a0a0" stroke="none" paint-order="stroke fill markers" d=" M 69.7886967409693 194.1966011250105 A 4 4 0 1 1 69.78869474096946 194.19260112567716"/><path fill="#a0a0a0" stroke="none" paint-order="stroke fill markers" d=" M 60 255.99999999999997 A 4 4 0 1 1 59.99999800000017 255.99600000066664"/><path fill="#a0a0a0" stroke="none" paint-order="stroke fill markers" d=" M 69.78869674096927 317.80339887498945 A 4 4 0 1 1 69.78869474096943 317.7993988756561"/><path fill="#a0a0a0" stroke="none" paint-order="stroke fill markers" d=" M 98.19660112501049 373.5570504584946 A 4 4 0 1 1 98.19659912501065 373.5530504591612"/><path fill="#a0a0a0" stroke="none" paint-order="stroke fill markers" d=" M 142.44294954150533 417.80339887498945 A 4 4 0 1 1 142.4429475415055 417.7993988756561"/><path fill="#a0a0a0" stroke="none" paint-order="stroke fill markers" d=" M 198.19660112501046 446.21130325903073 A 4 4 0 1 1 198.19659912501064 446.20730325969737"/></g></svg>